<svg width="281" height="97" viewBox="0 0 281 97" fill="none" xmlns="http://www.w3.org/2000/svg">
<g clip-path="url(#clip0_1325_2228)">
<path d="M0 38.0702C0 36.919 0.933186 35.9858 2.08433 35.9858H6.25299C7.40413 35.9858 8.33732 36.919 8.33732 38.0702V88.5469C8.33732 89.698 7.40413 90.6312 6.25299 90.6312H2.08433C0.933184 90.6312 0 89.698 0 88.5469V38.0702Z" fill="black"/>
<path d="M66.6985 38.0702C66.6985 36.919 67.6317 35.9858 68.7829 35.9858H72.9515C74.1027 35.9858 75.0358 36.919 75.0358 38.0702V88.5469C75.0358 89.698 74.1026 90.6312 72.9515 90.6312H68.7828C67.6317 90.6312 66.6985 89.698 66.6985 88.5469V38.0702Z" fill="black"/>
<path d="M22.9083 35.9858H18.7396C17.5885 35.9858 16.6553 36.919 16.6553 38.0702V88.5469C16.6553 89.698 17.5885 90.6312 18.7396 90.6312H18.759H22.9083H22.9277C24.0788 90.6312 25.012 89.698 25.012 88.5469V56.8291C25.012 49.9223 30.6111 44.3232 37.518 44.3232C43.7177 44.3232 48.8638 48.8345 49.8525 54.7535C50.0421 55.8889 50.9571 56.8291 52.1083 56.8291H56.2769C57.4281 56.8291 58.3722 55.8932 58.2586 54.7477C57.2142 44.2135 48.3269 35.9858 37.518 35.9858C32.817 35.9858 28.4795 38.1835 24.9926 40.8089V38.0702C24.9926 36.919 24.0594 35.9858 22.9083 35.9858Z" fill="black"/>
<path d="M102.358 42.0575C96.2017 42.0575 91.2108 46.1351 91.2108 51.1651C91.2108 56.1951 98.4645 59.4053 102.358 60.2727C106.252 61.1401 110.402 61.4023 113.508 63.3085C118.02 66.0779 120.938 70.4865 120.938 75.452C120.938 83.8352 112.62 90.6312 102.358 90.6312C97.2279 90.6312 92.583 88.9322 89.2208 86.1853C86.6925 84.1197 84.8895 81.4616 84.1506 78.4878C84.0719 78.1709 84.0053 77.8505 83.9511 77.5268C83.7612 76.3914 84.7122 75.452 85.8633 75.452H89.1264C90.2776 75.452 91.1834 76.4022 91.4966 77.5099C91.5908 77.8433 91.7074 78.1696 91.8451 78.4878C92.4049 79.7817 93.3124 80.9414 94.4758 81.892C96.4932 83.5401 99.2801 84.5595 102.358 84.5595C108.515 84.5595 113.506 80.4819 113.506 75.452C113.506 70.422 108.226 67.2118 102.358 66.3444C96.4912 65.477 94.3145 65.2148 91.209 63.3085C86.6972 60.5391 83.779 56.1306 83.779 51.1651C83.779 42.7818 92.0973 35.9858 102.358 35.9858C107.489 35.9858 112.134 37.6848 115.496 40.4317C118.024 42.4973 119.827 45.1554 120.566 48.1293C120.645 48.4461 120.712 48.7666 120.766 49.0903C120.956 50.2257 120.005 51.1651 118.854 51.1651H115.59C114.439 51.1651 113.533 50.2149 113.22 49.1071C113.126 48.7738 113.009 48.4475 112.872 48.1293C112.312 46.8354 111.404 45.6757 110.241 44.7251C108.224 43.0769 105.437 42.0575 102.358 42.0575Z" fill="black"/>
<path d="M134.706 25.9335H153.066C153.018 26.5502 152.923 27.2144 152.828 27.6413H134.991C135.845 30.6775 138.454 32.4802 141.632 32.4802C144.289 32.4802 146.329 31.1993 147.515 29.2543L149.128 30.2031C147.61 32.67 144.953 34.2829 141.632 34.2829C136.556 34.2829 132.761 30.5826 132.761 25.2693C132.761 19.9561 135.987 16.1134 141.253 16.1134C145.475 16.1134 148.654 18.8175 149.413 22.8025H151.073C150.172 17.9161 146.376 14.5479 141.253 14.5479C135.133 14.5479 131.148 19.1021 131.148 25.2693C131.148 31.3416 135.608 35.8484 141.632 35.8484C145.523 35.8484 148.654 33.9508 150.456 31.057L152.022 32.0532C149.934 35.4689 146.187 37.6986 141.632 37.6986C134.422 37.6986 129.251 32.243 129.251 25.2693C129.251 18.1533 134.184 12.7452 141.206 12.7452C148.037 12.7452 152.781 17.7264 153.066 24.5103H134.706C134.659 24.9373 134.659 25.5065 134.706 25.9335ZM141.253 17.9636C137.79 17.9636 135.655 19.8137 134.943 22.8025H147.562C146.898 19.7663 144.384 17.9636 141.253 17.9636ZM169.867 12.7452C175.37 12.7452 179.355 16.825 179.355 22.2806V37.1768H177.458V22.6127C177.458 18.0585 174.184 14.5479 169.488 14.5479C167.068 14.5479 164.981 15.4967 163.605 17.0148V18.9598C164.744 17.2994 166.642 16.1609 169.156 16.1609C173.141 16.1609 175.845 19.1021 175.845 22.8973V37.1768H173.947V23.2294C173.947 20.3356 171.955 18.011 168.776 18.011C165.645 18.011 163.605 20.3356 163.605 23.2294V37.1768H161.708V13.267H163.605V15.0697C165.171 13.5991 167.306 12.7452 169.867 12.7452ZM158.197 37.1768V13.267H160.095V37.1768H158.197ZM189.79 25.9335H208.15C208.102 26.5502 208.007 27.2144 207.912 27.6413H190.075C190.929 30.6775 193.538 32.4802 196.717 32.4802C199.373 32.4802 201.413 31.1993 202.599 29.2543L204.212 30.2031C202.694 32.67 200.037 34.2829 196.717 34.2829C191.641 34.2829 187.845 30.5826 187.845 25.2693C187.845 19.9561 191.071 16.1134 196.337 16.1134C200.559 16.1134 203.738 18.8175 204.497 22.8025H206.157C205.256 17.9161 201.461 14.5479 196.337 14.5479C190.217 14.5479 186.232 19.1021 186.232 25.2693C186.232 31.3416 190.692 35.8484 196.717 35.8484C200.607 35.8484 203.738 33.9508 205.54 31.057L207.106 32.0532C205.019 35.4689 201.271 37.6986 196.717 37.6986C189.506 37.6986 184.335 32.243 184.335 25.2693C184.335 18.1533 189.269 12.7452 196.29 12.7452C203.121 12.7452 207.865 17.7264 208.15 24.5103H189.79C189.743 24.9373 189.743 25.5065 189.79 25.9335ZM196.337 17.9636C192.874 17.9636 190.739 19.8137 190.028 22.8025H202.647C201.982 19.7663 199.468 17.9636 196.337 17.9636ZM213.281 37.1768V13.267H215.179V37.1768H213.281ZM224.24 15.1172C221.868 15.1172 219.875 16.066 218.689 17.7738V19.7189C219.638 17.9636 221.678 16.7301 224.145 16.7301H227.418V18.5803H224.05C220.872 18.5803 218.689 20.9997 218.689 24.0833V37.1768H216.792V13.267H218.689V15.5441C220.065 14.0261 222.153 13.267 224.382 13.267H227.418V15.1172H224.24ZM241.261 36.5126C234.714 36.5126 229.875 31.2942 229.875 24.6526C229.875 17.9636 234.667 12.7452 241.261 12.7452C244.012 12.7452 246.432 13.7889 248.235 15.5916V13.267H250.132V36.3703C250.132 41.0194 246.764 44.3876 241.878 44.3876C238.035 44.3876 235.094 42.2054 234.097 38.8846L235.853 38.2204C236.612 40.8296 238.841 42.5375 241.878 42.5375C245.625 42.5375 248.235 39.9757 248.235 36.3228V33.856C246.479 35.5164 244.107 36.5126 241.261 36.5126ZM251.745 13.267H253.595V36.4652C253.595 42.917 248.804 47.7559 241.878 47.7559C236.422 47.7559 232.247 44.6723 230.824 40.0706L232.579 39.4539C233.765 43.344 237.276 45.9531 241.878 45.9531C247.713 45.9531 251.745 41.8733 251.745 36.4177V13.267ZM241.451 14.5479C235.853 14.5479 231.773 18.9598 231.773 24.6526C231.773 30.2505 235.9 34.6624 241.451 34.6624C244.297 34.6624 246.622 33.5239 248.235 31.6263V29.4915C246.859 31.6737 244.534 33.0495 241.64 33.0495C236.896 33.0495 233.386 29.3966 233.386 24.6526C233.386 19.8137 236.896 16.1609 241.64 16.1609C244.582 16.1609 246.906 17.5366 248.235 19.7189V17.5841C246.669 15.6865 244.344 14.5479 241.451 14.5479ZM248.377 24.7001C248.377 20.8574 245.625 18.011 241.83 18.011C238.035 18.011 235.283 20.8574 235.283 24.7001C235.283 28.4004 238.035 31.2468 241.83 31.2468C245.625 31.2468 248.377 28.4004 248.377 24.7001ZM275.104 13.267H277.144L264.43 47.234H262.391L266.328 36.7024L257.504 13.267H259.544L267.372 33.9508L268.226 31.6737L261.347 13.267H263.387L269.222 29.0171L275.104 13.267ZM278.852 13.267H280.892L268.131 47.234H266.138L278.852 13.267Z" fill="url(#paint0_linear_1325_2228)"/>
</g>
<defs>
<linearGradient id="paint0_linear_1325_2228" x1="127.495" y1="32.0961" x2="195.846" y2="108.609" gradientUnits="userSpaceOnUse">
<stop stop-color="#00E673"/>
<stop offset="1" stop-color="#3EBAF4"/>
</linearGradient>
<clipPath id="clip0_1325_2228">
<rect width="281" height="97" fill="white"/>
</clipPath>
</defs>
</svg>
